<svg width="304" height="61" viewBox="0 0 304 61" fill="none" xmlns="http://www.w3.org/2000/svg">
<path d="M86.9832 48L101.575 13.92H108.487L123.079 48H115.111L112.087 40.8H97.9753L94.9513 48H86.9832ZM105.031 23.952L100.711 34.176H109.303L105.031 23.952ZM134.953 48.528C131.849 48.528 129.209 47.296 127.033 44.832C124.889 42.368 123.817 39.424 123.817 36C123.817 32.576 124.889 29.632 127.033 27.168C129.209 24.704 131.849 23.472 134.953 23.472C137.705 23.472 139.881 24.448 141.481 26.4V12H148.729V48H141.481V45.6C139.881 47.552 137.705 48.528 134.953 48.528ZM132.601 40.272C133.625 41.392 134.953 41.952 136.585 41.952C138.217 41.952 139.529 41.392 140.521 40.272C141.545 39.152 142.057 37.728 142.057 36C142.057 34.272 141.545 32.848 140.521 31.728C139.529 30.608 138.217 30.048 136.585 30.048C134.953 30.048 133.625 30.608 132.601 31.728C131.609 32.848 131.113 34.272 131.113 36C131.113 37.728 131.609 39.152 132.601 40.272ZM184.743 48V35.568C184.743 31.888 183.591 30.048 181.287 30.048C178.535 30.048 177.095 32.048 176.967 36.048V48H169.719V35.568C169.719 31.888 168.567 30.048 166.263 30.048C164.919 30.048 163.863 30.576 163.095 31.632C162.327 32.656 161.943 34.224 161.943 36.336V48H154.695V24H161.943V26.448C163.479 24.464 165.527 23.472 168.087 23.472C171.447 23.472 173.911 24.88 175.479 27.696C176.183 26.32 177.239 25.28 178.647 24.576C180.055 23.84 181.463 23.472 182.871 23.472C185.783 23.472 188.023 24.432 189.591 26.352C191.191 28.272 191.991 30.928 191.991 34.32V48H184.743ZM201.232 20.736C200.016 20.736 198.96 20.304 198.064 19.44C197.168 18.544 196.72 17.472 196.72 16.224C196.72 14.976 197.168 13.92 198.064 13.056C198.96 12.16 200.016 11.712 201.232 11.712C202.512 11.712 203.584 12.16 204.448 13.056C205.344 13.92 205.792 14.976 205.792 16.224C205.792 17.472 205.344 18.544 204.448 19.44C203.584 20.304 202.512 20.736 201.232 20.736ZM197.632 48V24H204.88V48H197.632ZM210.851 48V24H218.099V26.448C219.475 24.464 221.699 23.472 224.771 23.472C227.683 23.472 229.955 24.448 231.587 26.4C233.251 28.352 234.083 30.928 234.083 34.128V48H226.835V35.376C226.835 31.824 225.539 30.048 222.947 30.048C221.507 30.048 220.339 30.576 219.443 31.632C218.547 32.688 218.099 34.256 218.099 36.336V48H210.851ZM261.056 48L247.184 32.736V48H239.6V13.92H247.184V28.176L258.752 13.92H268.112L254.672 30.288L270.848 48H261.056ZM276.185 20.736C274.969 20.736 273.913 20.304 273.017 19.44C272.121 18.544 271.673 17.472 271.673 16.224C271.673 14.976 272.121 13.92 273.017 13.056C273.913 12.16 274.969 11.712 276.185 11.712C277.465 11.712 278.537 12.16 279.401 13.056C280.297 13.92 280.745 14.976 280.745 16.224C280.745 17.472 280.297 18.544 279.401 19.44C278.537 20.304 277.465 20.736 276.185 20.736ZM272.585 48V24H279.833V48H272.585ZM298.044 48.288C295.228 48.288 292.908 47.52 291.084 45.984C289.292 44.416 288.396 42.16 288.396 39.216V30.288H283.596V24H288.396V17.328H295.644V24H302.364V30.288H295.644V37.728C295.644 39.168 295.964 40.208 296.604 40.848C297.244 41.488 298.284 41.808 299.724 41.808C300.812 41.808 301.692 41.664 302.364 41.376V47.808C301.308 48.128 299.868 48.288 298.044 48.288Z" fill="#1D262D"/>
<path d="M18.25 28.9121C28.3293 28.9121 36.5 38.5104 36.5 38.5104C36.5 38.5104 28.3293 48.1086 18.25 48.1086C8.17072 48.1086 0 38.5104 0 38.5104C0 38.5104 8.17072 28.9121 18.25 28.9121Z" fill="#C5DFFC"/>
<path d="M30.3804 18.8146C37.5076 25.9435 36.5 38.5097 36.5 38.5097C36.5 38.5097 23.9372 39.5176 16.8101 32.3886C9.68308 25.2596 10.6905 12.6935 10.6905 12.6935C10.6905 12.6935 23.2534 11.6856 30.3804 18.8146Z" fill="#77B8F8"/>
<path d="M54.75 28.9121C44.6707 28.9121 36.5 38.5104 36.5 38.5104C36.5 38.5104 44.6707 48.1086 54.75 48.1086C64.8293 48.1086 73 38.5104 73 38.5104C73 38.5104 64.8293 28.9121 54.75 28.9121Z" fill="#00386A"/>
<path d="M42.6196 18.8147C35.4925 25.9436 36.5001 38.5098 36.5001 38.5098C36.5001 38.5098 49.063 39.5177 56.19 32.3887C63.3171 25.2597 62.3095 12.6935 62.3095 12.6935C62.3095 12.6935 49.7468 11.6858 42.6196 18.8147Z" fill="#044B92"/>
<path d="M46.0966 20.2549C46.0966 30.3369 36.5009 38.5099 36.5009 38.5099C36.5009 38.5099 26.9053 30.3369 26.9053 20.2549C26.9053 10.1729 36.5009 2 36.5009 2C36.5009 2 46.0966 10.1731 46.0966 20.2549Z" fill="#0A66C2"/>
</svg>
