<svg width="73" height="47" viewBox="0 0 73 47" fill="none" xmlns="http://www.w3.org/2000/svg">
<path d="M18.25 26.9121C28.3293 26.9121 36.5 36.5104 36.5 36.5104C36.5 36.5104 28.3293 46.1086 18.25 46.1086C8.17072 46.1086 0 36.5104 0 36.5104C0 36.5104 8.17072 26.9121 18.25 26.9121Z" fill="#C5DFFC"/>
<path d="M30.3804 16.8146C37.5076 23.9435 36.5 36.5097 36.5 36.5097C36.5 36.5097 23.9372 37.5176 16.8101 30.3886C9.68308 23.2596 10.6905 10.6935 10.6905 10.6935C10.6905 10.6935 23.2534 9.68563 30.3804 16.8146Z" fill="#77B8F8"/>
<path d="M54.75 26.9121C44.6707 26.9121 36.5 36.5104 36.5 36.5104C36.5 36.5104 44.6707 46.1086 54.75 46.1086C64.8293 46.1086 73 36.5104 73 36.5104C73 36.5104 64.8293 26.9121 54.75 26.9121Z" fill="#00386A"/>
<path d="M42.6196 16.8147C35.4925 23.9436 36.5001 36.5098 36.5001 36.5098C36.5001 36.5098 49.063 37.5177 56.19 30.3887C63.3171 23.2597 62.3095 10.6935 62.3095 10.6935C62.3095 10.6935 49.7468 9.68576 42.6196 16.8147Z" fill="#044B92"/>
<path d="M46.0966 18.2549C46.0966 28.3369 36.5009 36.5099 36.5009 36.5099C36.5009 36.5099 26.9053 28.3369 26.9053 18.2549C26.9053 8.17294 36.5009 0 36.5009 0C36.5009 0 46.0966 8.17308 46.0966 18.2549Z" fill="#0A66C2"/>
</svg>
