<svg xmlns="http://www.w3.org/2000/svg" width="24" height="24" fill="currentColor" viewBox="0 0 24 24">
  <path fill-rule="evenodd" d="M13.712 1.386l-.084-.014c-.38-.062-.804-.132-1.245.034a1.843 1.843 0 00-.903.77 1.724 1.724 0 00-.21.705c-.02.203-.02.441-.02.69V5a.75.75 0 001.5 0V3.6c0-.288 0-.45.013-.57a.58.58 0 01.019-.108V2.92c.002 0 .006-.008.015-.019a.412.412 0 01.115-.091h.001c.007-.003.024-.01.091-.007.096.005.223.024.471.064a9.258 9.258 0 017.722 8.129c.003.067-.004.084-.006.09v.002c-.002.001-.005.008-.012.02a.402.402 0 01-.1.11h-.001l-.011.004a.594.594 0 01-.096.015 6.56 6.56 0 01-.571.013h-5.9c-.5 0-.641-.004-.744-.024a1.25 1.25 0 01-.982-.982c-.02-.103-.024-.243-.024-.744V9a.75.75 0 00-1.5 0v.573c0 .393 0 .696.053.963a2.75 2.75 0 002.16 2.161c.268.053.571.053.964.053H20.43c.248 0 .486 0 .689-.02.229-.023.467-.075.705-.21.335-.192.634-.542.77-.903.166-.44.096-.864.034-1.245l-.014-.084a10.758 10.758 0 00-8.902-8.902zM9.225 3.174a.75.75 0 00-.45-1.432C4.415 3.112 1.25 7.186 1.25 12c0 5.937 4.813 10.75 10.75 10.75 4.815 0 8.888-3.164 10.258-7.525a.75.75 0 10-1.431-.45A9.254 9.254 0 0112 21.25 9.25 9.25 0 012.75 12a9.254 9.254 0 016.475-8.826z"/>
</svg>
