<?xml version="1.0" encoding="UTF-8"?>
<svg id="Layer_2" data-name="Layer 2" xmlns="http://www.w3.org/2000/svg" viewBox="0 0 300.05 184.72">
  <defs>
    <style>
      .cls-1 {
        opacity: .1;
      }

      .cls-2 {
        fill: #e6e6e6;
      }

      .cls-3 {
        fill: #e3e5ff;
      }

      .cls-4 {
        fill: #eb4334;
      }

      .cls-5 {
        fill: #ffa320;
      }

      .cls-6 {
        fill: #fff;
      }

      .cls-7 {
        fill: #ffb939;
      }

      .cls-8 {
        fill: #ffb780;
      }

      .cls-9 {
        fill: #ffc69a;
      }

      .cls-10 {
        fill: #daa184;
      }

      .cls-11 {
        fill: #411809;
      }

      .cls-12 {
        fill: #4753de;
      }

      .cls-13 {
        fill: #3943b3;
      }

      .cls-14, .cls-15, .cls-16, .cls-17, .cls-18, .cls-19 {
        fill: none;
        stroke-miterlimit: 10;
      }

      .cls-14, .cls-16 {
        stroke-linecap: round;
      }

      .cls-14, .cls-16, .cls-19 {
        stroke: #3943b3;
      }

      .cls-15 {
        stroke-dasharray: 0 0 6.81 6.81;
      }

      .cls-15, .cls-17 {
        stroke: #b3b3b3;
      }

      .cls-16 {
        stroke-width: 2px;
      }

      .cls-18 {
        stroke: #fff;
      }
    </style>
  </defs>
  <g id="OBJECTS">
    <g>
      <path class="cls-3" d="M41.27,19.55C75.93-8.14,120.8,1.56,122.67,1.99c28.35,6.59,27.08,21.37,57.99,32.46,45.12,16.19,68.83-7.76,94.71,10.64,20.22,14.38,28.7,45.34,22.88,68.64-10.76,43.1-72.44,68.13-119.18,62.25-44.62-5.61-56.38-36.97-105.88-36.18-32.01,.51-42.93,13.88-55.33,5.32C-5.96,128.67-2.15,54.22,41.27,19.55Z"/>
      <rect class="cls-6" x="49.36" y="28.48" width="203.92" height="137.83" rx="9.6" ry="9.6"/>
      <path class="cls-2" d="M245.42,28.95H58.53c-4.87-.19-8.89,3.14-8.75,8.76v3.05l203.08-.19v-3.47c0-4.32-3.4-8.15-7.45-8.15Z"/>
      <g>
        <rect class="cls-13" x="66.08" y="102.45" width="71.86" height="25.45" rx="2.33" ry="2.33"/>
        <path class="cls-6" d="M87.41,115.54c0,3.81-3.09,6.91-6.91,6.91s-6.91-3.09-6.91-6.91,3.09-6.91,6.91-6.91,6.91,3.09,6.91,6.91Z"/>
        <g>
          <line class="cls-18" x1="93.22" y1="116.27" x2="129.58" y2="116.27"/>
          <line class="cls-18" x1="93.22" y1="111.56" x2="110.64" y2="111.56"/>
          <line class="cls-18" x1="93.22" y1="120.63" x2="129.58" y2="120.63"/>
        </g>
      </g>
      <path class="cls-7" d="M241.88,55.75v-3.47c0-2.19-1.77-3.96-3.96-3.96h-75.65c-2.19,0-3.96,1.77-3.96,3.96v33.9l83.57-30.42Z"/>
      <rect class="cls-7" x="179.38" y="50.63" width="15.26" height="32.33" transform="translate(-11.43 74.17) rotate(-21.78)"/>
      <rect class="cls-17" x="158.31" y="48.32" width="83.57" height="97.31" rx="5.23" ry="5.23"/>
      <rect class="cls-7" x="174.19" y="61.61" width="15.26" height="32.33" transform="translate(-15.88 73.02) rotate(-21.78)"/>
      <rect class="cls-7" x="166.17" y="73.63" width="15.26" height="15.26" transform="translate(-17.75 70.3) rotate(-21.78)"/>
      <rect class="cls-7" x="221.68" y="54.68" width="15.26" height="21.72" transform="translate(-7.95 89.78) rotate(-21.78)"/>
      <rect class="cls-2" x="66.32" y="48.32" width="71.62" height="10.4"/>
      <rect class="cls-2" x="66.32" y="134.44" width="71.62" height="4.01"/>
      <rect class="cls-2" x="66.32" y="141.92" width="71.62" height="4.01"/>
      <rect class="cls-15" x="66.08" y="70.46" width="71.86" height="25.45" rx="2.33" ry="2.33"/>
      <g>
        <circle class="cls-5" cx="234.92" cy="35.38" r="1.66"/>
        <circle class="cls-4" cx="240.47" cy="35.38" r="1.66"/>
        <circle class="cls-13" cx="246.03" cy="35.38" r="1.66"/>
      </g>
      <path class="cls-6" d="M225.85,38.12H57.99c-1.81,0-3.27-1.46-3.27-3.27h0c0-1.81,1.46-3.27,3.27-3.27H225.85c1.81,0,3.27,1.46,3.27,3.27h0c0,1.81-1.46,3.27-3.27,3.27Z"/>
      <rect class="cls-17" x="49.36" y="28.48" width="203.92" height="137.83" rx="9.6" ry="9.6"/>
      <g>
        <rect class="cls-13" x="39.18" y="70.46" width="71.86" height="25.45" rx="2.33" ry="2.33"/>
        <path class="cls-6" d="M60.51,83.55c0,3.81-3.09,6.91-6.91,6.91s-6.91-3.09-6.91-6.91,3.09-6.91,6.91-6.91,6.91,3.09,6.91,6.91Z"/>
        <g>
          <line class="cls-18" x1="66.32" y1="84.28" x2="102.68" y2="84.28"/>
          <line class="cls-18" x1="66.32" y1="79.57" x2="83.74" y2="79.57"/>
          <line class="cls-18" x1="66.32" y1="88.64" x2="102.68" y2="88.64"/>
        </g>
      </g>
      <g>
        <g>
          <path class="cls-5" d="M31.56,176.67s4.5,1.28,6.72,2.51c1.77,.99,1.99,1.81-.2,1.81-2.8,0-6.13-.05-8.12-.36-1.35-.21-.79-3.38-.56-3.93l2.17-.03Z"/>
          <polygon class="cls-9" points="31.17 176.67 31.62 174.92 29.29 175.19 29.4 176.7 31.17 176.67"/>
          <path class="cls-13" d="M39.64,180.57c-2.43-.08-7.53-.29-8.87-.61-.79-.19-1.32-.53-1.68-.86,.05,.76,.27,1.43,.86,1.52,2,.31,5.32,.37,8.12,.36,.95,0,1.44-.16,1.56-.41Z"/>
          <path class="cls-10" d="M20.89,115.55s-.56-2.65,4.16-6.18,7.27-6.09,7.27-6.09l4.48-15.5,1.55,.73s.1,12.16-.58,15.78c-.68,3.61-15.65,19.27-16.88,11.27Z"/>
          <path class="cls-5" d="M33.16,99.46l5.08,.74-.19,4.25s-7.43,11.59-12.26,13.42c-4.84,1.83-7.74-.99-6.55-3.01,1.18-2.02,12.3-11.44,12.3-11.44l1.63-3.94Z"/>
          <rect class="cls-7" x="34.28" y="96.54" width="2.54" height="6.09" transform="translate(139.46 80) rotate(98.97)"/>
          <path class="cls-10" d="M38.35,92.04s-2.94-7.18-2.07-8.01c0,0,2.74,4.63,3.57,6.58"/>
          <g>
            <path class="cls-7" d="M3.72,172.27s3.17,3.45,4.41,5.65c.99,1.77,.75,2.58-1.12,1.44-2.39-1.46-5.19-3.25-6.73-4.56-1.04-.89,1.1-3.3,1.58-3.64l1.86,1.11Z"/>
            <polygon class="cls-9" points="3.38 172.06 4.69 170.81 2.55 169.82 1.86 171.16 3.38 172.06"/>
          </g>
          <path class="cls-13" d="M30.08,133.64l-9.25-5.16s1.55,19.52,7.47,28.14c0,0,.05,15.7,1.08,19.09l2.16-.05s3.31-17.86,3-20.71c-.57-5.23-1.12-12.78-4.45-21.31Z"/>
          <g>
            <path class="cls-11" d="M20.27,97.7s-3.7,1.82-4,8.63c-.29,6.82-1.47,7.07-1.47,7.07,0,0,5.01,2.92,10.62,0l-5.14-15.7Z"/>
            <path class="cls-9" d="M24.74,98.34c1.49,1.36,2.2,3.56,2.28,5.64,.08,2.26-3.39,2.57-5.36,1.47-1.75-.97-2.99-3.16-2.65-5.02,.43-2.41,3.75-3.91,5.73-2.09Z"/>
            <path class="cls-9" d="M22.72,101.11l-3.65,.57,1.37,8.82c.2,1.26,1.38,2.13,2.64,1.93h0c1.36-.21,2.24-1.55,1.88-2.88l-2.25-8.44Z"/>
            <path class="cls-11" d="M23.11,97.88s.9,4.94-4.04,6.15c-3.45,.85-3.35-7.74,1.52-7.92,6.84-.25,5.3,3.68,5.3,3.68,0,0-1.65-2.41-2.78-1.91Z"/>
            <polygon class="cls-10" points="24.23 106.78 21.45 105.56 24.04 106.03 24.23 106.78"/>
          </g>
          <path class="cls-13" d="M28.34,129.6l-11.27,3s-3.17,4.3-2.01,21.05c0,0-9.84,8.28-12.59,16.33l1.82,1.19s13.86-12.38,15.81-14.48c2.34-2.52,6.86-10.91,8.24-27.08Z"/>
          <path class="cls-7" d="M27.14,110.41c-.23-1.01-.96-1.83-1.93-2.19-2.09-.76-7.16-.8-7.21,6.06-.09,13.5-.94,18.31-.94,18.31,0,0,2.71,2.35,13.01,1.05l-1.36-8.53,1.2-2.62c.77-2.08,.7-4.38-.22-6.4l-2.57-5.69Z"/>
          <path class="cls-9" d="M22.96,116.1s-.56-2.65,4.16-6.18c4.72-3.53,7.27-6.09,7.27-6.09l4.48-15.5,1.55,.73s.1,12.16-.58,15.78c-.68,3.61-15.65,19.27-16.88,11.27Z"/>
          <path class="cls-9" d="M38.51,89.77s-1.03-4.37-.17-5.19c0,0,.84,1.81,1.67,3.77,.26,.61,2.9,2.52,1.54,2.31-1.36-.2-3.04-.89-3.04-.89Z"/>
          <path class="cls-9" d="M25.42,99.18s1.12,1.17,2.01,1.39c0,0-.19,.8-.86,1.19l-1.15-2.58Z"/>
          <path class="cls-13" d="M8.56,179.82c-2.03-1.34-6.26-4.19-7.23-5.16-.57-.57-.85-1.14-.98-1.61-.36,.67-.52,1.36-.06,1.74,1.54,1.31,4.34,3.1,6.73,4.56,.81,.49,1.31,.62,1.54,.46Z"/>
          <path class="cls-9" d="M2.03,171.26s2.46,4.26,3.56,3.16l-1.82-2.72-1.74-.44Z"/>
          <path class="cls-9" d="M29.66,176.63s4.32,2.42,4.63,.9l-3.02-1.27-1.61,.37Z"/>
          <path class="cls-7" d="M35.6,99.65l4.64,.85-.28,5.35s-6.89,10.37-11.73,12.2c-4.84,1.83-7.74-.99-6.55-3.01,1.18-2.02,12.3-11.44,12.3-11.44l1.63-3.94Z"/>
          <rect class="cls-7" x="36.71" y="96.73" width="2.54" height="6.09" transform="translate(142.46 77.82) rotate(98.97)"/>
          <path class="cls-13" d="M30.08,133.64l1.21,3.4-7.79,8.59,.73-11.6s2.48,.08,5.85-.39Z"/>
          <path class="cls-12" d="M21.04,152.37c-1.59,1.64-2.09,2.38-2.32,3.34-.18,.78,.01,.89-.2,1.36-.6,1.3-2.29,1.03-4.36,1.98-1.51,.69-2.51,1.8-4.5,4.02-.99,1.1-.9,1.16-2.52,3.2-1.92,2.42-3.09,3.64-3.64,4.38l.79,.51s13.86-12.38,15.81-14.48c1.05-1.13,2.53-3.44,3.98-7.11-.27-.06-1.2,.91-3.04,2.79Z"/>
          <rect class="cls-13" x="28.55" y="174.37" width="3.63" height="1.43" transform="translate(60.74 350.18) rotate(180)"/>
          <rect class="cls-13" x="1.58" y="169.61" width="3.63" height="1.43" transform="translate(-78.82 319.54) rotate(-150)"/>
        </g>
        <g>
          <path class="cls-7" d="M16.12,103.2l8.32-6.57c-1.81-2.3-5.15-2.69-7.44-.87-2.3,1.81-2.69,5.15-.87,7.44"/>
          <path class="cls-5" d="M18.78,94.83c-.63,.19-1.24,.49-1.79,.92-2.3,1.81-2.69,5.15-.87,7.44l2.16-1.71c-1.44-2.07-1.21-4.85,.49-6.65Z"/>
          <rect class="cls-5" x="14.81" y="98.62" width="12.29" height="1.51" transform="translate(-55.26 32.25) rotate(-36.72)"/>
        </g>
        <path class="cls-13" d="M29.93,122.5c.66-1.76,.69-3.69,.13-5.46-3.14,1.14-5.83,.92-7.86,.29-1.7-6.09,.97-8.81,1.67-9.4-.67-.07-1.42-.04-2.15,.16-1.06,1.53-2.16,4.27-1.24,8.56-1.58-.77-2.47-1.62-2.47-1.62h0c-.12,12.92-1.26,18.15-1.26,18.15,0,0,3.03,1.76,13.34,.46l-1.36-8.53,1.2-2.62Z"/>
        <path class="cls-12" d="M34.53,154.95c-.57-5.23-1.12-12.78-4.45-21.31l-1.36-8.53,1.2-2.62c.66-1.76,.69-3.69,.13-5.46-.54,.2-1.06,.34-1.57,.46,.15,1.51,.22,3.49-.77,5.58-.34,.72-.87,1.58-1.09,3-.26,1.68,.07,3.02,.27,3.82,1.16,4.51,2.32,7.77,2.32,7.77,1.61,4.54,2.41,6.8,2.45,7.9,.16,4.13-1.73,6.45-.14,8.58,.77,1.03,1.84,1.35,1.91,2.45,.06,1.05-.86,1.41-1.5,2.73-.87,1.8-.1,3.1,0,5.72,.1,2.66-.64,2.98-.95,5.86-.17,1.54-.16,3.27-.02,4.77h.57s3.31-17.88,3-20.72Z"/>
      </g>
      <g>
        <g>
          <polygon class="cls-4" points="89.82 178.76 72 178.76 77.81 149.4 84.02 149.4 89.82 178.76"/>
          <rect class="cls-4" x="67.79" y="177.3" width="25.43" height="3.04"/>
        </g>
        <polygon class="cls-4" points="89.82 178.76 72 178.76 77.81 149.4 84.02 149.4 89.82 178.76"/>
        <polygon class="cls-6" points="75.35 161.84 86.48 161.84 85.57 157.24 76.26 157.24 75.35 161.84"/>
        <polygon class="cls-6" points="73.22 172.6 88.6 172.6 87.7 168 74.13 168 73.22 172.6"/>
      </g>
      <g>
        <g>
          <path class="cls-13" d="M280.95,174.39s-6.98,3.84-9.27,3.87c-2.3,.03-.6,1.01,1.9,1.25,1.98,.18,5.94-.38,8.26-.83,.18-.03,.73-.6,.73-.6l.16,.54c.22,.05,1.2-.1,1.2-.1,.09-1.17-.49-4.15-.49-4.15l-2.48,.02Z"/>
          <polygon class="cls-8" points="280.95 174.39 281.04 172.53 283.52 172.65 283.43 174.38 280.95 174.39"/>
        </g>
        <path class="cls-13" d="M280.87,118.5l8.26,1.41s-2.52,22.08-5.13,30.68c0,0,1.71,14.79-.12,22.79l-3.27,.16s-2.79-18.91-3.54-22.1c-.91-3.83,.22-13.09,3.8-32.93Z"/>
        <polygon class="cls-13" points="279.89 171.67 280.13 173.81 284.23 173.71 284.45 171.79 279.89 171.67"/>
        <g>
          <g>
            <path class="cls-13" d="M290.7,175.15s-6.98,3.84-9.27,3.87c-2.3,.03-.6,1.01,1.9,1.25,1.98,.18,5.94-.38,8.26-.83,.18-.03,.73-.6,.73-.6l.16,.54c.22,.05,1.2-.1,1.2-.1,.09-1.17-.49-4.15-.49-4.15l-2.48,.02Z"/>
            <polygon class="cls-8" points="290.7 175.15 290.79 173.28 293.27 173.41 293.18 175.13 290.7 175.15"/>
          </g>
          <path class="cls-13" d="M284.88,119.8l8.76,6.82s2.88,4.25-1.52,24.21c0,0,3.82,10.98,1.38,23.25l-3.24,.49s-3.91-20.34-4.99-23.44c-1.3-3.72-2.34-14.05-.38-31.33Z"/>
          <polygon class="cls-13" points="289.43 172.6 289.85 174.72 293.92 174.29 293.99 172.36 289.43 172.6"/>
          <polygon class="cls-13" points="284.24 126.49 279.48 126.36 278.72 130.93 285.61 142.73 284.24 126.49"/>
        </g>
        <g>
          <g>
            <path class="cls-7" d="M289.3,101.89s-3.25-2.93-7.21,2.97c-3.96,5.9-6.55,8.68-6.55,8.68l-15.03-8.29-1.57,3.19s13.54,15.49,17.85,14.45c4.3-1.04,22.22-20.02,12.51-21Z"/>
            <path class="cls-8" d="M259.04,108.56s-7.28-5.61-3.81-4.62c1.57,.45,2.96,1.64,3.51,1.15,.54-.48-.61-.93-.81-2-.18-.97,3.24,2.67,3.24,2.67l-2.13,2.8Z"/>
            <g class="cls-1">
              <polygon points="264.12 110.09 270.36 115.92 263.3 112.62 264.12 110.09"/>
            </g>
            <g class="cls-1">
              <polygon points="275.06 119.22 282.58 112.41 282.58 114.21 278.82 120.23 275.06 119.22"/>
            </g>
            <polygon class="cls-7" points="258.11 108.45 259.66 109.62 262.53 106.11 260.98 104.95 258.11 108.45"/>
          </g>
          <path class="cls-7" d="M286.17,99.52c2.51-.92,9.63-1.52,10.73,4.56,1,5.55-1.11,10.38-1.94,14.32-.59,2.81-.91,7.04-.91,7.04,0,0-4.66,5.51-13.34,3.04l.56-9.43,.59-5.22c-.48-5.93-.34-6.66,.72-9.64,.44-1.25,2.06-3.93,3.25-4.52,.11-.06,.23-.11,.35-.15Z"/>
          <path class="cls-13" d="M282.34,109.21l-.74-.56c0-3.79,1.56-9.03,7.66-9.5h.19c-7.85,1.52-7.11,9.96-7.11,10.06Z"/>
          <path class="cls-8" d="M288.41,89.67l4.51-.03-.54,9.41c-.02,.28-.08,.61-.33,.78-1.85,1.33-3.42,.68-3.42,.68-1.52-.36-.42-1.06-.19-2.77l-.02-8.08Z"/>
          <path class="cls-8" d="M287.84,87.55c-2.19,2.75-2.44,5.17-2.37,7.69,.09,3.19,4.33,3.23,7.03,1.55,2.4-1.49,3.52-4.23,2.93-6.83-.77-3.37-5.24-5.38-7.6-2.41Z"/>
          <g class="cls-1">
            <polygon points="288.21 98.68 290.78 97.64 288.41 97.88 288.21 98.68"/>
          </g>
          <path class="cls-8" d="M286.39,90.58s-.93,.74-1.85,1.95c0,0,.39,.82,1.2,1.09l.65-3.04Z"/>
          <path class="cls-11" d="M295.92,89.46c-.17-4.35-7.72-4.31-8.63-3.59-1.76,1.37-.34,2.92-.34,2.92l.37-.28c.06-.03,.13-.06,.21-.09,1.11,.16,5,.96,3.81,4.03-.3,.77,.36,1.13,1.15,1.17,.07,.93,.07,1.93-.09,2.93-.11,.72,3.78-.02,3.51-7.08Z"/>
          <g>
            <path class="cls-13" d="M256.03,97.36h.99v20.53h-1.62v-19.91c0-.34,.28-.62,.62-.62Z" transform="translate(5.81 228.16) rotate(-48.49)"/>
            <path class="cls-6" d="M263.78,109.43c.44,.39,.69,.95,.68,1.53l-.03,2.86-15.38-13.61,4.43,.69c.52,.08,1,.31,1.4,.66l8.89,7.87Z"/>
          </g>
          <path class="cls-8" d="M289.94,94.21c.35,.53,1.24,.55,2,.05,.76-.5,1.09-1.33,.74-1.86-.35-.53-1.24-.55-2-.05-.76,.5-1.09,1.33-.74,1.86Z"/>
          <path class="cls-13" d="M294.09,127.87s.28-6.66,.87-9.47c.33-1.58,.87-3.3,1.33-5.15-5.6-.51-10.99-2.8-14.68-4.74-.04,1.21,.05,2.79,.25,5.31l-1.15,5.22-1.6,9.56c8.67,2.47,14.98-.73,14.98-.73Z"/>
        </g>
        <path class="cls-13" d="M291.32,133.92l-2.92-.79c3.77-13.9,5.61-26.92,4.01-28.42-1.04-.94-1.72-.89-2.13-.77-2.21,.61-4.35,5.43-5.03,7.67l-2.29-.89c.27-.86,2.12-8.48,6.52-9.7,1.17-.32,2.98-.34,4.97,1.44,3.93,3.53-.87,23.18-3.11,31.46Z"/>
        <g>
          <path class="cls-7" d="M290.53,102.92s-2.95,0-6.15,6.34c-3.2,6.34-4.87,8.03-4.87,8.03l-15.08-6.65-2.62,3.4s16.13,13.76,19.89,11.43c7.02-4.34,18.58-22.76,8.83-22.54Z"/>
          <path class="cls-8" d="M261.81,114.03s-3.44,.28-4.26-1.76c-.52-1.31-2.36-4.21-.54-2.86,1.14,.84,2.7,2.41,3.17,1.75,.46-.64-1.93-.89-1.31-2.15l4.05,2.27-1.1,2.76Z"/>
        </g>
        <polygon class="cls-7" points="260.62 114.9 262.33 115.8 265.2 110.72 263.49 109.82 260.62 114.9"/>
        <g>
          <path class="cls-7" d="M296.44,90.89l-9.45-4.8c1.33-2.61,4.52-3.65,7.12-2.32,2.61,1.33,3.65,4.52,2.32,7.12"/>
          <path class="cls-5" d="M292.19,83.22c.65,.06,1.31,.24,1.93,.55,2.61,1.33,3.65,4.52,2.32,7.12l-2.46-1.25c1.01-2.31,.23-4.99-1.8-6.43Z"/>
          <rect class="cls-5" x="290.19" y="81.96" width="1.51" height="12.29" transform="translate(86.72 313.27) rotate(-64.64)"/>
        </g>
      </g>
      <g>
        <g>
          <polygon class="cls-4" points="271.22 178.76 253.4 178.76 259.2 149.4 265.41 149.4 271.22 178.76"/>
          <rect class="cls-4" x="249.18" y="177.3" width="25.43" height="3.04"/>
        </g>
        <polygon class="cls-4" points="271.22 178.76 253.4 178.76 259.2 149.4 265.41 149.4 271.22 178.76"/>
        <polygon class="cls-6" points="256.74 161.84 267.87 161.84 266.96 157.24 257.65 157.24 256.74 161.84"/>
        <polygon class="cls-6" points="254.62 172.6 270 172.6 269.09 168 255.53 168 254.62 172.6"/>
      </g>
      <g>
        <path class="cls-13" d="M137.98,184.72c.36,0,.68-.25,.76-.62l13.48-65.78c.09-.42-.18-.83-.6-.92-.42-.09-.83,.18-.92,.6l-13.48,65.78c-.09,.42,.18,.83,.6,.92,.05,.01,.11,.02,.16,.02Z"/>
        <path class="cls-12" d="M150.83,124.65h19.46c.43,0,.78-.35,.78-.78s-.35-.78-.78-.78h-19.46c-.43,0-.78,.35-.78,.78s.35,.78,.78,.78Z"/>
        <path class="cls-12" d="M148.93,133.11h19.46c.43,0,.78-.35,.78-.78s-.35-.78-.78-.78h-19.46c-.43,0-.78,.35-.78,.78s.35,.78,.78,.78Z"/>
        <path class="cls-12" d="M147.3,141.57h19.46c.43,0,.78-.35,.78-.78s-.35-.78-.78-.78h-19.46c-.43,0-.78,.35-.78,.78s.35,.78,.78,.78Z"/>
        <path class="cls-12" d="M145.54,150.04h19.46c.43,0,.78-.35,.78-.78s-.35-.78-.78-.78h-19.46c-.43,0-.78,.35-.78,.78s.35,.78,.78,.78Z"/>
        <path class="cls-12" d="M143.88,158.5h19.46c.43,0,.78-.35,.78-.78s-.35-.78-.78-.78h-19.46c-.43,0-.78,.35-.78,.78s.35,.78,.78,.78Z"/>
        <path class="cls-12" d="M142.23,166.96h19.46c.43,0,.78-.35,.78-.78s-.35-.78-.78-.78h-19.46c-.43,0-.78,.35-.78,.78s.35,.78,.78,.78Z"/>
        <path class="cls-12" d="M140.55,175.42h19.46c.43,0,.78-.35,.78-.78s-.35-.78-.78-.78h-19.46c-.43,0-.78,.35-.78,.78s.35,.78,.78,.78Z"/>
        <path class="cls-13" d="M158.8,184.72c.36,0,.68-.25,.76-.62l13.48-65.78c.09-.42-.18-.83-.6-.92-.42-.09-.83,.18-.92,.6l-13.48,65.78c-.09,.42,.18,.83,.6,.92,.05,.01,.1,.02,.16,.02Z"/>
      </g>
      <g>
        <g>
          <line class="cls-16" x1="222.92" y1="76.1" x2="226.9" y2="86.23"/>
          <polyline class="cls-14" points="212.43 73.67 213.74 75.94 222.75 75.63 229.36 69.74 228.37 66.42"/>
          <line class="cls-14" x1="229.12" y1="65.8" x2="211.57" y2="73.56"/>
          <path class="cls-5" d="M226.68,70.38l-10.26,4.31c-1.48,.62-3.2-.08-3.82-1.56h0c-.62-1.48,.08-3.2,1.56-3.82l10.26-4.31c1.48-.62,3.2,.08,3.82,1.56h0c.62,1.48-.08,3.2-1.56,3.82Z"/>
          <path class="cls-7" d="M215.83,73.54l10.26-4.31c1.34-.56,2.03-2.03,1.69-3.4-.8-.96-2.16-1.34-3.37-.84l-10.26,4.31c-1.34,.56-2.03,2.03-1.69,3.4,.8,.96,2.16,1.34,3.37,.84Z"/>
        </g>
        <g>
          <g>
            <polygon class="cls-13" points="213.57 167.63 200.25 167.63 197.8 149.4 216.02 149.4 213.57 167.63"/>
            <path class="cls-19" d="M198.99,149.85c0-4.37,3.55-7.92,7.92-7.92s7.92,3.55,7.92,7.92"/>
          </g>
          <path class="cls-7" d="M212.31,149.99c.12-.12,.14-.34,.1-.6h-10.98c-.21,1.24,.3,2.6,.75,2.66,.55,.07,.93-1.85,1.61-1.81,.57,.04,1.35,1.34,.81,4.45-.48,2.74,1.18,3.32,1.37,3.28,1.71-.32,.6-6.58,2.11-7.02,.57-.17,1.14,.68,1.9,.35,.63-.27,.66-1.01,1.42-1.22,.47-.13,.72,.08,.9-.1Z"/>
        </g>
        <g>
          <g>
            <path class="cls-7" d="M223.83,133l8.58,1.52,6.46-3.34s-.64-4.56-.61-5.83c.09-3.06,1.56-9.94-.61-14.85-1.6-3.61-4.58-1.97-8.34-.78l-4.24,.46s-6.8-4.11-2.05,14.83c.54,2.16,.82,7.98,.82,7.98Z"/>
            <g>
              <path class="cls-9" d="M227.37,96.61c-1.68,1.72-2.39,4.4-2.34,6.89,.05,2.7,4.22,2.84,6.49,1.4,2.02-1.28,3.35-3.97,2.83-6.17-.68-2.85-4.73-4.42-6.98-2.12Z"/>
              <path class="cls-9" d="M226.49,97.84s-1.03,1.2-1.89,1.47c0,0,.23,.77,.91,1.12l.98-2.58Z"/>
            </g>
            <g>
              <path class="cls-7" d="M221.32,111.78l-2.18,8.33-1.37,4.31-8.33,14.65,2.6,1.74,10.51-14.75,1.61-4.59,6.25-12.16c.5-1.43-2.55-1.37-3.97-1.87-1.43-.5-4.1,1.37-5.13,4.35Z"/>
              <path class="cls-9" d="M209.8,138.45s-3.15,3.48-.99,3.25c1.51-.17,.42-.39,.42-.39,0,0-2.15,1.89-1.2,1.85,.95-.03,2.95,.81,3.43-.49,.59-1.57,.86-2.49,.86-2.49l-2.52-1.74Z"/>
              <rect class="cls-7" x="210.45" y="136.64" width="2.01" height="4.49" transform="translate(-22.36 235.48) rotate(-55.74)"/>
            </g>
            <g>
              <g>
                <polygon class="cls-7" points="231.03 101.6 225.37 85.73 228.24 84.47 236.04 100.82 236.83 105.62 231.63 106.08 231.03 101.6"/>
                <path class="cls-7" d="M235.96,117.14c-1.49,.25-2.9-.76-3.15-2.25l-1.18-8.81,5.2-.46,1.66,7.69c.25,1.49-1.03,3.58-2.53,3.83Z"/>
              </g>
              <path class="cls-9" d="M226.25,86s-3.24-3.45-1.88-4.13l1,1.65s-1.18-4.23-.26-4.03c.93,.2,2.96,1.38,2.75,2.75-.25,1.64-.39,3-.39,3l-1.23,.77Z"/>
              <rect class="cls-7" x="226.14" y="83.88" width="2.01" height="3.91" transform="translate(222.56 -156.94) rotate(68.22)"/>
            </g>
            <polygon class="cls-9" points="226.72 103.58 227.12 112.51 232 110.95 229.7 102.8 226.72 103.58"/>
            <path class="cls-13" d="M228.29,129.03c.26-10.23-1.05-18.33-1.87-21.6-.6-.19-1.4,.02-2.21,.54,.78,3.06,2.08,10.43,1.81,21l2.27,.06Z"/>
          </g>
          <g>
            <g>
              <path class="cls-13" d="M240.27,138.74c1.08-7.76-1.91-13.01-1.91-13.01-5.02,2.79-14.91,2.15-14.91,2.15l-1.4,13.11-.77,14.53s.33,8.13,3.75,18.94l3.87-.62s.7-7.67-.61-18.61c0,0,1.94-7.82,3-11.85,.07-.27,1.22-.69,1.28-.91,0,0,5.77-.31,7.71-3.72Z"/>
              <path class="cls-13" d="M233.74,174.34l3.38-.5s1.58-7.93,.01-18.38c0,0,2.69-5.94,2.91-15.35,.09-.46,.16-.92,.22-1.36-1.94,3.41-7.71,3.72-7.71,3.72l-2.48,13.72s1.02,6.59,3.66,18.16Z"/>
              <path class="cls-12" d="M234.48,142.18c-1.11,.23-1.91,.27-1.91,.27l-2.48,13.72s1.01,6.52,3.62,17.96c.39-.26,.72-.58,.88-.96,.34-.79-.18-1.3-.82-3.82-.4-1.57-.19-1.34-.82-4.5-.48-2.42-.72-3.63-.95-4.22-.65-1.66-1.3-2.36-.95-3.27,.33-.87,1.22-1.01,1.23-1.77,0-.64-.63-.9-.95-1.5-.78-1.43,.78-3.66,1.23-4.36,.93-1.45,1.84-3.76,1.94-7.56Z"/>
            </g>
            <polygon class="cls-9" points="225.02 174.46 225.75 176.84 228.45 176.63 228.44 173.95 225.02 174.46"/>
            <g>
              <path class="cls-7" d="M220.85,180.39s.03-1.6,3.04-2.1c1.59-.26,.77-1.44,.77-1.44l2.96-.91-2.82,4.98-3.95-.53Z"/>
              <g>
                <path class="cls-13" d="M228.1,175.91c-2,0-1.85,1.7-2.15,2.77h0s-1.41,2.02-4.42,1.79c.72,.1,1.87,.26,2.78,.38,.92,.13,1.85,.07,2.75-.17l1.68-.45c.97-.53,2.04-4.21-.47-4.32-.05,0-.11,0-.17,0Z"/>
                <path class="cls-5" d="M221.04,180.42c.17,.03,.33,.04,.49,.05-.6-.08-.9-.12-.49-.05Z"/>
              </g>
            </g>
            <polygon class="cls-9" points="233.74 174.34 234.44 176.73 237.14 176.52 237.13 173.84 233.74 174.34"/>
            <g>
              <path class="cls-7" d="M229.53,180.28s.03-1.6,3.04-2.1c1.59-.26,.77-1.44,.77-1.44l2.97-.91-2.82,4.98-3.95-.53Z"/>
              <g>
                <path class="cls-13" d="M236.78,175.8c-2,0-1.85,1.7-2.15,2.77h0s-1.41,2.02-4.42,1.79c.72,.1,1.87,.26,2.78,.38,.92,.13,1.85,.07,2.75-.17l1.68-.45c.97-.53,2.04-4.21-.47-4.32-.05,0-.11,0-.17,0Z"/>
                <path class="cls-5" d="M229.72,180.31c.17,.03,.33,.04,.49,.05-.6-.08-.9-.12-.49-.05Z"/>
              </g>
            </g>
          </g>
          <rect class="cls-13" x="224.21" y="172.88" width="5.05" height="2.13" transform="translate(-17.5 25.58) rotate(-6.22)"/>
          <rect class="cls-13" x="232.91" y="172.39" width="5.05" height="2.13" transform="translate(-17.4 26.52) rotate(-6.22)"/>
          <path class="cls-6" d="M226.64,106.88l-.08,1.5s1.97,.69,3.21,.32c1.23-.37,1.66-1.52,1.66-1.52l-.41-1.11s-1.11,1.75-4.38,.81Z"/>
          <path class="cls-11" d="M227.6,94.5s-2.89,2.61,.65,5.29c0,0,1.31,.96-.63,3.28-.4,.47-.4,1.17,0,1.64,1.18,1.38,3.76,3.41,6.5-.87,1.27-1.98,1.44-4.31,.38-5.69-1.02-1.32-1.95-2.06-3.52-2.61-1.43-.49-2.18-.32-3.39-1.05Z"/>
          <path class="cls-11" d="M227.61,103.07c-3.41,2.95-3.22,7.01-3.21,7.64,.03,3.26,3.3,5.88,3.37,6.64,.2,2.1-3.17,6.52-2.69,8.71,.7,3.17,6.33,4.32,11.86,2.01,6.32-2.64,7.14-11.05,1.49-16.83-2.5-2.56-1.68-7.57-2.16-11.22-.29-2.21-.94,.12-2-1.51-1.59-2.44-5.51-3.27-6.12-2.53-.57,.7,1.93,2.51,1.38,4.64-.28,1.06-.62,1.3-1.93,2.44Z"/>
          <path class="cls-9" d="M229.3,100.61c.23,.44-.03,1.02-.57,1.3-.54,.28-1.17,.15-1.39-.29-.23-.44,.03-1.02,.57-1.3,.54-.28,1.17-.15,1.39,.29Z"/>
        </g>
        <g>
          <path class="cls-7" d="M235.97,101.6l-8.32-6.57c1.81-2.3,5.15-2.69,7.44-.87,2.3,1.81,2.69,5.15,.87,7.44"/>
          <path class="cls-5" d="M233.31,93.23c.63,.19,1.24,.49,1.79,.92,2.3,1.81,2.69,5.15,.87,7.44l-2.16-1.71c1.44-2.07,1.21-4.85-.49-6.65Z"/>
          <rect class="cls-5" x="230.37" y="91.63" width="1.51" height="12.29" transform="translate(14.55 224.56) rotate(-53.27)"/>
        </g>
      </g>
    </g>
  </g>
</svg>