<svg xmlns="http://www.w3.org/2000/svg" width="24" height="24" fill="currentColor" viewBox="0 0 24 24">
  <path fill-rule="evenodd" d="M3.75 10.5c0-4.53 3.607-7.75 8.25-7.75 1.48 0 2.856.33 4.04.921a.75.75 0 00.67-1.342c-1.4-.7-3.006-1.079-4.71-1.079-5.357 0-9.75 3.78-9.75 9.25 0 4.17 1.866 7.233 3.984 9.239a13.29 13.29 0 003.183 2.24c.976.484 1.912.77 2.583.77.67 0 1.607-.286 2.583-.77a13.29 13.29 0 003.183-2.24c2.118-2.006 3.984-5.068 3.984-9.239 0-1.839-.501-3.505-1.385-4.901a.75.75 0 10-1.267.802c.729 1.152 1.152 2.539 1.152 4.099 0 3.68-1.634 6.369-3.516 8.15a11.796 11.796 0 01-2.817 1.985c-.899.445-1.588.615-1.917.615-.33 0-1.018-.17-1.917-.615a11.795 11.795 0 01-2.817-1.985C5.384 16.869 3.75 14.18 3.75 10.5zM12 7.25a.75.75 0 000 1.5A2.25 2.25 0 119.75 11a.75.75 0 00-1.5 0A3.75 3.75 0 1012 7.25z"/>
</svg>
